HIERARCHY
ROOT hip
{
  OFFSET 0 0 0
  CHANNELS 6 Xposition Yposition Zposition Zrotation Yrotation Xrotation
  JOINT abdomen
  {
    OFFSET 0 20.6881 -0.73152
    CHANNELS 3 Zrotation Xrotation Yrotation
    JOINT chest
    {
      OFFSET 0 11.7043 -0.48768
      CHANNELS 3 Zrotation Xrotation Yrotation
      JOINT neck
      {
        OFFSET 0 22.1894 -2.19456
        CHANNELS 3 Zrotation Xrotation Yrotation
        JOINT head
        {
          OFFSET -0.24384 7.07133 1.2192
          CHANNELS 3 Zrotation Xrotation Yrotation
          JOINT leftEye
          {
            OFFSET 4.14528 8.04674 8.04672
            CHANNELS 3 Zrotation Xrotation Yrotation
            End Site
            {
              OFFSET 1 0 0
            }
          }
          JOINT rightEye
          {
            OFFSET -3.6576 8.04674 8.04672
            CHANNELS 3 Zrotation Xrotation Yrotation
            End Site
            {
              OFFSET 1 0 0
            }
          }
        }
      }
      JOINT rCollar
      {
        OFFSET -2.68224 19.2634 -4.8768
        CHANNELS 3 Zrotation Xrotation Yrotation
        JOINT rShldr
        {
          OFFSET -8.77824 -1.95073 1.46304
          CHANNELS 3 Zrotation Xrotation Yrotation
          JOINT rForeArm
          {
            OFFSET -28.1742 -1.7115 0.48768
            CHANNELS 3 Zrotation Xrotation Yrotation
            JOINT rHand
            {
              OFFSET -22.5879 0.773209 7.07136
              CHANNELS 3 Zrotation Xrotation Yrotation
              JOINT rThumb1
              {
                OFFSET -1.2192 -0.487915 3.41376
                CHANNELS 3 Zrotation Xrotation Yrotation
                JOINT rThumb2
                {
                  OFFSET -3.37035 -0.52449 3.41376
                  CHANNELS 3 Zrotation Xrotation Yrotation
                  End Site
                  {
                    OFFSET -1.78271 -1.18214 1.43049
                  }
                }
              }
              JOINT rIndex1
              {
                OFFSET -7.75947 0.938293 5.60832
                CHANNELS 3 Zrotation Xrotation Yrotation
                JOINT rIndex2
                {
                  OFFSET -2.54057 -0.884171 1.56538
                  CHANNELS 3 Zrotation Xrotation Yrotation
                  End Site
                  {
                    OFFSET -1.62519 -0.234802 1.16502
                  }
                }
              }
              JOINT rMid1
              {
                OFFSET -8.24714 1.18213 3.41376
                CHANNELS 3 Zrotation Xrotation Yrotation
                JOINT rMid2
                {
                  OFFSET -3.10165 -0.590103 1.0647
                  CHANNELS 3 Zrotation Xrotation Yrotation
                  End Site
                  {
                    OFFSET -2.48547 -0.328903 0.83742
                  }
                }
              }
              JOINT rRing1
              {
                OFFSET -8.82822 0.546677 1.51678
                CHANNELS 3 Zrotation Xrotation Yrotation
                JOINT rRing2
                {
                  OFFSET -2.60934 -0.819778 -0.0198488
                  CHANNELS 3 Zrotation Xrotation Yrotation
                  End Site
                  {
                    OFFSET -2.33842 -0.294052 0.168128
                  }
                }
              }
              JOINT rPinky1
              {
                OFFSET -8.27202 -0.0477905 -0.4584
                CHANNELS 3 Zrotation Xrotation Yrotation
                JOINT rPinky2
                {
                  OFFSET -1.82734 -0.647385 -0.700984
                  CHANNELS 3 Zrotation Xrotation Yrotation
                  End Site
                  {
                    OFFSET -1.69225 -0.51767 -0.607171
                  }
                }
              }
            }
          }
        }
      }
      JOINT lCollar
      {
        OFFSET 2.68224 19.2634 -4.8768
        CHANNELS 3 Zrotation Xrotation Yrotation
        JOINT lShldr
        {
          OFFSET 8.77824 -1.95073 1.46304
          CHANNELS 3 Zrotation Xrotation Yrotation
          JOINT lForeArm
          {
            OFFSET 28.1742 -1.7115 0.48768
            CHANNELS 3 Zrotation Xrotation Yrotation
            JOINT lHand
            {
              OFFSET 22.5879 0.773209 7.07136
              CHANNELS 3 Zrotation Xrotation Yrotation
              JOINT lThumb1
              {
                OFFSET 1.2192 -0.487915 3.41376
                CHANNELS 3 Zrotation Xrotation Yrotation
                JOINT lThumb2
                {
                  OFFSET 3.37035 -0.52449 3.41376
                  CHANNELS 3 Zrotation Xrotation Yrotation
                  End Site
                  {
                    OFFSET 1.78271 -1.18214 1.43049
                  }
                }
              }
              JOINT lIndex1
              {
                OFFSET 7.75947 0.938293 5.60832
                CHANNELS 3 Zrotation Xrotation Yrotation
                JOINT lIndex2
                {
                  OFFSET 2.54057 -0.884171 1.56538
                  CHANNELS 3 Zrotation Xrotation Yrotation
                  End Site
                  {
                    OFFSET 1.62519 -0.234802 1.16502
                  }
                }
              }
              JOINT lMid1
              {
                OFFSET 8.24714 1.18213 3.41376
                CHANNELS 3 Zrotation Xrotation Yrotation
                JOINT lMid2
                {
                  OFFSET 3.10165 -0.590103 1.0647
                  CHANNELS 3 Zrotation Xrotation Yrotation
                  End Site
                  {
                    OFFSET 2.48547 -0.328903 0.83742
                  }
                }
              }
              JOINT lRing1
              {
                OFFSET 8.82822 0.546677 1.51678
                CHANNELS 3 Zrotation Xrotation Yrotation
                JOINT lRing2
                {
                  OFFSET 2.60934 -0.819778 -0.0198488
                  CHANNELS 3 Zrotation Xrotation Yrotation
                  End Site
                  {
                    OFFSET 2.33842 -0.294052 0.168128
                  }
                }
              }
              JOINT lPinky1
              {
                OFFSET 8.27202 -0.0477905 -0.4584
                CHANNELS 3 Zrotation Xrotation Yrotation
                JOINT lPinky2
                {
                  OFFSET 1.82734 -0.647385 -0.700984
                  CHANNELS 3 Zrotation Xrotation Yrotation
                  End Site
                  {
                    OFFSET 1.69225 -0.51767 -0.607171
                  }
                }
              }
            }
          }
        }
      }
    }
  }
  JOINT rButtock
  {
    OFFSET -8.77824 4.35084 1.2192
    CHANNELS 3 Zrotation Xrotation Yrotation
    JOINT rThigh
    {
      OFFSET 0 -1.70687 -2.19456
      CHANNELS 3 Zrotation Xrotation Yrotation
      JOINT rShin
      {
        OFFSET 0 -36.8199 0.73152
        CHANNELS 3 Zrotation Xrotation Yrotation
        JOINT rFoot
        {
          OFFSET 0.73152 -45.1104 -5.12064
          CHANNELS 3 Zrotation Xrotation Yrotation
          End Site
          {
            OFFSET -1.1221 -3.69964 12.103
          }
        }
      }
    }
  }
  JOINT lButtock
  {
    OFFSET 8.77824 4.35084 1.2192
    CHANNELS 3 Zrotation Xrotation Yrotation
    JOINT lThigh
    {
      OFFSET 0 -1.70687 -2.19456
      CHANNELS 3 Zrotation Xrotation Yrotation
      JOINT lShin
      {
        OFFSET 0 -36.8199 0.73152
        CHANNELS 3 Zrotation Xrotation Yrotation
        JOINT lFoot
        {
          OFFSET -0.73152 -45.1104 -5.12064
          CHANNELS 3 Zrotation Xrotation Yrotation
          End Site
          {
            OFFSET 1.1221 -3.69964 12.103
          }
        }
      }
    }
  }
}
MOTION
Frames:	7
Frame Time:	0.00833333
-34.509 83.2473 31.0548 -80.9732 -83.4428 83.6609 6.00365 -6.46142 9.4296 0.00816158 -0.171196 2.36441 -9.3363 14.5932 -7.61862 16.8532 -55.6192 -8.61716 -0.0 0.0 0.0 -0.0 0.0 0.0 1.14326e-13 1.3506e-12 -3.44573e-14 57.0286 54.1199 40.1478 -26.3139 -24.2687 58.1156 -7.67274 -58.9903 -13.5214 2.06799e-09 2.70389e-09 9.87258e-10 3.50838e-09 4.80508e-09 1.79229e-09 2.068e-09 2.70389e-09 9.87254e-10 7.73091 5.47488 0.417314 2.068e-09 2.70389e-09 9.87262e-10 2.90554 0.965183 0.102902 2.068e-09 2.70389e-09 9.87259e-10 10.2786 0.731801 0.0259123 2.06799e-09 2.70389e-09 9.87267e-10 2.22167 -0.733487 -0.20892 1.14246e-13 1.3506e-12 -3.46767e-14 -65.9743 47.8837 -23.3709 26.6876 -44.7967 -93.0548 4.08151 -48.3223 9.08294 -1.35635e-09 3.32627e-10 -1.46883e-09 -2.28011e-09 5.6935e-10 -2.58236e-09 -1.35636e-09 3.32628e-10 -1.46881e-09 -7.73091 5.47488 -0.417314 -1.35635e-09 3.32626e-10 -1.46883e-09 -2.90554 0.965183 -0.102902 -1.35635e-09 3.32627e-10 -1.46883e-09 -10.2786 0.731801 -0.0259123 -1.35635e-09 3.32628e-10 -1.46884e-09 -2.22167 -0.733487 0.20892 -2.03217e-16 0.0 -3.88251e-19 3.85884 -13.3237 -9.24832 -0.619955 49.0014 0.752815 -0.983262 3.19453 -12.0784 2.03217e-16 0.0 3.88251e-19 4.71979 -27.7692 -1.9635 0.0813526 23.5484 0.235389 0.706854 0.744993 4.24678
-35.1947 83.3104 31.1583 -75.8253 -83.4863 78.453 5.7072 -6.36983 9.29831 0.015002 -0.207367 2.33595 -9.32084 14.6427 -7.77904 16.581 -55.6697 -9.10509 -0.0 0.0 0.0 -0.0 0.0 0.0 1.14145e-13 1.28085e-12 -6.02815e-14 56.1937 53.3167 41.4336 -26.4528 -24.6563 58.7319 -7.70299 -59.0549 -13.5567 1.92697e-09 2.21748e-09 6.75553e-10 3.28201e-09 3.97515e-09 1.24948e-09 1.92698e-09 2.21747e-09 6.75547e-10 7.73091 5.47488 0.417314 1.92697e-09 2.21748e-09 6.75556e-10 2.90554 0.965183 0.102902 1.92698e-09 2.21748e-09 6.75552e-10 10.2786 0.731801 0.0259123 1.92697e-09 2.21748e-09 6.75559e-10 2.22167 -0.733487 -0.20892 1.14067e-13 1.28084e-12 -6.04802e-14 -66.6565 48.8374 -22.177 26.7808 -44.5781 -92.6021 4.06427 -48.2508 9.05989 -1.58824e-09 3.0262e-10 -1.34002e-09 -2.68511e-09 5.10091e-10 -2.37019e-09 -1.58825e-09 3.02621e-10 -1.34001e-09 -7.73091 5.47488 -0.417314 -1.58824e-09 3.0262e-10 -1.34002e-09 -2.90554 0.965183 -0.102902 -1.58824e-09 3.0262e-10 -1.34002e-09 -10.2786 0.731801 -0.0259123 -1.58824e-09 3.02621e-10 -1.34002e-09 -2.22167 -0.733487 0.20892 -2.03217e-16 0.0 -3.88251e-19 3.32641 -14.0962 -9.73516 -0.649035 49.8336 0.778177 -0.9314 3.59436 -12.5626 2.03217e-16 0.0 3.88251e-19 4.33496 -27.3026 -2.03751 0.0782506 23.5352 0.22578 0.711906 0.496021 3.89843
-35.872 83.3751 31.2609 -70.7592 -83.4813 73.3362 5.42 -6.2755 9.14266 0.0171588 -0.250892 2.30051 -9.29753 14.6792 -7.92338 16.3175 -55.698 -9.55426 -0.0 0.0 0.0 -0.0 0.0 0.0 1.55801e-13 1.50935e-12 -8.48255e-14 55.3812 52.4669 42.706 -26.5957 -25.0701 59.3883 -7.71846 -59.0877 -13.5747 1.30718e-09 1.47079e-09 4.44932e-10 2.22809e-09 2.64223e-09 8.23658e-10 1.30718e-09 1.47079e-09 4.44923e-10 7.73091 5.47488 0.417314 1.30718e-09 1.47079e-09 4.44934e-10 2.90554 0.965183 0.102902 1.30719e-09 1.47079e-09 4.4493e-10 10.2786 0.731801 0.0259123 1.30717e-09 1.47079e-09 4.44937e-10 2.22167 -0.733487 -0.20892 1.55736e-13 1.50935e-12 -8.49995e-14 -67.3691 49.7814 -20.9835 26.8864 -44.3164 -92.0713 4.03444 -48.1259 9.01989 -9.65362e-10 1.74085e-10 -8.39306e-10 -1.63065e-09 2.8928e-10 -1.48572e-09 -9.6537e-10 1.74086e-10 -8.39305e-10 -7.73091 5.47488 -0.417314 -9.6536e-10 1.74086e-10 -8.39306e-10 -2.90554 0.965183 -0.102902 -9.65365e-10 1.74085e-10 -8.39307e-10 -10.2786 0.731801 -0.0259123 -9.65358e-10 1.74087e-10 -8.39316e-10 -2.22167 -0.733487 0.20892 -2.03217e-16 0.0 -3.88251e-19 2.78235 -14.8827 -10.2012 -0.676586 50.5899 0.802879 -0.88864 3.92492 -13.0327 2.03217e-16 0.0 3.88251e-19 3.96599 -26.8333 -2.1127 0.0747309 23.5072 0.21426 0.715091 0.235053 3.56426
-36.5421 83.4407 31.362 -65.8741 -83.4308 68.4097 5.13911 -6.17849 8.96357 0.0152938 -0.301951 2.25842 -9.26675 14.7044 -8.05249 16.0636 -55.706 -9.9659 -0.0 0.0 0.0 -0.0 0.0 0.0 2.24257e-13 1.91835e-12 -1.08508e-13 54.5911 51.5723 43.9649 -26.7397 -25.5053 60.0892 -7.72058 -59.0921 -13.5772 3.34658e-10 4.68901e-10 2.21128e-10 5.67126e-10 8.32726e-10 3.93027e-10 3.34662e-10 4.68899e-10 2.21118e-10 7.73091 5.47488 0.417314 3.3466e-10 4.68898e-10 2.21129e-10 2.90554 0.965183 0.102902 3.34664e-10 4.68897e-10 2.21126e-10 10.2786 0.731801 0.0259123 3.34649e-10 4.68898e-10 2.21132e-10 2.22167 -0.733487 -0.20892 2.24216e-13 1.91835e-12 -1.08651e-13 -68.1123 50.7161 -19.7878 27.0008 -44.009 -91.4684 3.99558 -47.9615 8.9676 2.09723e-10 -2.55809e-11 -6.5058e-11 3.65333e-10 -4.93713e-11 -1.09606e-10 2.09716e-10 -2.55788e-11 -6.50541e-11 -7.73091 5.47488 -0.417314 2.09726e-10 -2.55774e-11 -6.50569e-11 -2.90554 0.965183 -0.102902 2.0972e-10 -2.55792e-11 -6.506e-11 -10.2786 0.731801 -0.0259123 2.09729e-10 -2.55771e-11 -6.50692e-11 -2.22167 -0.733487 0.20892 -2.03217e-16 0.0 -3.88251e-19 2.2242 -15.6866 -10.6496 -0.702769 51.2776 0.826883 -0.855844 4.19169 -13.4894 2.03217e-16 0.0 3.88251e-19 3.61098 -26.3593 -2.18822 0.0707836 23.4623 0.20095 0.716199 -0.0380389 3.24038
-37.2043 83.5067 31.4611 -61.2473 -83.3409 63.7515 4.86735 -6.08018 8.76308 0.0108785 -0.359348 2.21021 -9.22762 14.7173 -8.16505 15.8203 -55.6947 -10.3364 -0.0 0.0 0.0 -0.0 0.0 0.0 2.92368e-13 2.30627e-12 -1.25583e-13 53.8455 50.636 45.1881 -26.8846 -25.9616 60.8238 -7.70625 -59.0616 -13.5605 -7.06524e-10 -5.99401e-10 -1.2804e-11 -1.21174e-09 -1.09676e-09 -5.8075e-11 -7.06522e-10 -5.99402e-10 -1.28158e-11 7.73091 5.47488 0.417314 -7.06523e-10 -5.99405e-10 -1.28032e-11 2.90554 0.965183 0.102902 -7.06521e-10 -5.99407e-10 -1.28056e-11 10.2786 0.731801 0.0259123 -7.06538e-10 -5.99406e-10 -1.28e-11 2.22167 -0.733487 -0.20892 2.92346e-13 2.30627e-12 -1.25698e-13 -68.9002 51.6275 -18.584 27.1245 -43.6627 -90.7912 3.94977 -47.7658 8.90579 1.64354e-09 -2.79692e-10 8.62783e-10 2.80169e-09 -4.80575e-10 1.54068e-09 1.64353e-09 -2.79689e-10 8.6279e-10 -7.73091 5.47488 -0.417314 1.64354e-09 -2.79687e-10 8.62785e-10 -2.90554 0.965183 -0.102902 1.64353e-09 -2.7969e-10 8.6278e-10 -10.2786 0.731801 -0.0259123 1.64354e-09 -2.79687e-10 8.6277e-10 -2.22167 -0.733487 0.20892 -2.03217e-16 0.0 -3.88251e-19 1.6552 -16.4989 -11.0753 -0.726614 51.8842 0.849625 -0.83376 4.39597 -13.9293 2.03217e-16 0.0 3.88251e-19 3.27069 -25.8834 -2.26372 0.0665866 23.4038 0.185889 0.714993 -0.318634 2.93068
-37.8594 83.5738 31.5585 -56.9392 -83.22 59.4207 4.60754 -5.98195 8.54327 0.0053863 -0.421886 2.1564 -9.17927 14.7168 -8.25978 15.588 -55.6649 -10.6623 -0.0 0.0 0.0 -0.0 0.0 0.0 3.32985e-13 2.47149e-12 -1.30303e-13 53.1637 49.662 46.3564 -27.0303 -26.4395 61.5812 -7.6725 -58.9897 -13.5211 -1.5323e-09 -1.54532e-09 -2.73811e-10 -2.61936e-09 -2.78962e-09 -5.45307e-10 -1.5323e-09 -1.54532e-09 -2.73823e-10 7.73091 5.47488 0.417314 -1.5323e-09 -1.54532e-09 -2.73811e-10 2.90554 0.965183 0.102902 -1.5323e-09 -1.54533e-09 -2.73812e-10 10.2786 0.731801 0.0259123 -1.53232e-09 -1.54533e-09 -2.73808e-10 2.22167 -0.733487 -0.20892 3.32966e-13 2.47149e-12 -1.30403e-13 -69.7454 52.5013 -17.3672 27.2579 -43.2838 -90.0377 3.89906 -47.5473 8.83723 3.0426e-09 -5.71565e-10 1.82427e-09 5.17727e-09 -9.79042e-10 3.24766e-09 3.04259e-09 -5.71562e-10 1.82428e-09 -7.73091 5.47488 -0.417314 3.0426e-09 -5.71558e-10 1.82427e-09 -2.90554 0.965183 -0.102902 3.04259e-09 -5.71562e-10 1.82427e-09 -10.2786 0.731801 -0.0259123 3.04261e-09 -5.7156e-10 1.82426e-09 -2.22167 -0.733487 0.20892 -2.03217e-16 0.0 -3.88251e-19 1.07921 -17.3108 -11.473 -0.747092 52.3968 0.870485 -0.823052 4.53909 -14.3488 2.03217e-16 0.0 3.88251e-19 2.94583 -25.4084 -2.33888 0.0623191 23.3353 0.169117 0.711423 -0.602102 2.63903
-38.5076 83.64 31.6537 -52.9436 -83.072 55.413 4.36084 -5.88396 8.30307 -0.00228645 -0.489903 2.09666 -9.12043 14.7028 -8.33617 15.3649 -55.616 -10.9434 -0.0 0.0 0.0 -0.0 0.0 0.0 3.42841e-13 2.33749e-12 -1.19433e-13 52.5384 48.6481 47.4816 -27.1751 -26.9391 62.3695 -7.61807 -58.8727 -13.4576 -2.19451e-09 -2.5485e-09 -6.77549e-10 -3.73976e-09 -4.54964e-09 -1.26968e-09 -2.19451e-09 -2.5485e-09 -6.77561e-10 7.73091 5.47488 0.417314 -2.19451e-09 -2.5485e-09 -6.7755e-10 2.90554 0.965183 0.102902 -2.1945e-09 -2.54851e-09 -6.7755e-10 10.2786 0.731801 0.0259123 -2.19452e-09 -2.54851e-09 -6.77547e-10 2.22167 -0.733487 -0.20892 3.42799e-13 2.33749e-12 -1.19537e-13 -70.6505 53.3398 -16.1322 27.396 -42.8621 -89.2133 3.84091 -47.2938 8.75836 4.86421e-09 -1.04968e-09 3.18502e-09 8.26713e-09 -1.80208e-09 5.65749e-09 4.8642e-09 -1.04968e-09 3.18503e-09 -7.73091 5.47488 -0.417314 4.86421e-09 -1.04967e-09 3.18503e-09 -2.90554 0.965183 -0.102902 4.8642e-09 -1.04968e-09 3.18502e-09 -10.2786 0.731801 -0.0259123 4.86422e-09 -1.04968e-09 3.18501e-09 -2.22167 -0.733487 0.20892 -2.03217e-16 0.0 -3.88251e-19 0.497834 -18.1258 -11.842 -0.763976 52.8166 0.889304 -0.826752 4.61676 -14.7487 2.03217e-16 0.0 3.88251e-19 2.63725 -24.9338 -2.41364 0.0579058 23.2564 0.150487 0.705869 -0.889792 2.36649
